<?xml version="1.0" encoding="UTF-8"?>
<!-- Generator: visioncortex VTracer 0.6.4 -->
<svg version="1.1" xmlns="http://www.w3.org/2000/svg" width="109" height="80">
<path d="M0 0 C8.105625 -0.1546875 8.105625 -0.1546875 16.375 -0.3125 C18.05899902 -0.35802002 19.74299805 -0.40354004 21.47802734 -0.45043945 C31.40646603 -0.60808991 38.72191206 0.37229257 46.47265625 7.16796875 C46.99730469 7.83441406 47.52195313 8.50085938 48.0625 9.1875 C48.61035156 9.86167969 49.15820312 10.53585937 49.72265625 11.23046875 C51 13 51 13 52 15 C52.33 10.05 52.66 5.1 53 0 C60.13716743 -0.66084884 65.03282793 1.03188055 71 5 C75.79156209 9.22903069 79.3582405 14.63628176 80.30207825 21.05401611 C80.4389188 23.29852814 80.49313591 25.5287617 80.51171875 27.77734375 C80.52966995 28.58869278 80.54762115 29.40004181 80.56611633 30.23597717 C80.61988463 32.80310008 80.65400616 35.3700407 80.6875 37.9375 C80.72070276 39.68817623 80.75519513 41.4388285 80.79101562 43.18945312 C80.87559126 47.45950314 80.94256074 51.72950225 81 56 C81.37874268 55.39091797 81.75748535 54.78183594 82.14770508 54.15429688 C87.2716915 46.15102639 87.2716915 46.15102639 91.6875 43.5 C92.43386719 43.0359375 93.18023437 42.571875 93.94921875 42.09375 C97.12829056 40.39824503 99.64201887 39.87937736 103.1875 39.9375 C104.445625 39.958125 105.70375 39.97875 107 40 C108.07085726 62.63627499 108.07085726 62.63627499 102 70 C97.71848439 74.62781466 93.4045921 78.90985666 87 80 C84.36 80 81.72 80 79 80 C79 74.72 79 69.44 79 64 C78.195625 65.36125 77.39125 66.7225 76.5625 68.125 C72.69726194 73.95966889 67.64553243 77.78482252 61 80 C58.34130872 80.0849393 55.70893227 80.11602423 53.05078125 80.09765625 C52.36576538 80.09664917 51.68074951 80.09564209 50.97497559 80.09460449 C48.42079998 80.08938007 45.86664828 80.07541879 43.3125 80.0625 C37.599375 80.041875 31.88625 80.02125 26 80 C26 66.8 26 53.6 26 40 C17.42 40 8.84 40 0 40 C0 26.8 0 13.6 0 0 Z M53 20 C54 22 54 22 54 22 Z M27 22 C27 27.94 27 33.88 27 40 C33.27 40 39.54 40 46 40 C44.42140613 38.94760408 42.83028028 37.90663606 41.16796875 36.9921875 C35.66981967 33.8906675 32.44250783 30.24050555 29 25 C28.34 24.01 27.68 23.02 27 22 Z M54 23 C54 34.22 54 45.44 54 57 C54.99 55.68 55.98 54.36 57 53 C61.60709907 46.99644862 66.14013732 43.23549079 73 40 C70.01991416 37.92908616 70.01991416 37.92908616 66.6875 36.3125 C61.10567071 33.16165767 57.78147183 28.04196244 54 23 Z " fill="#FEFEFE" transform="translate(0,0)"/>
</svg>
